<svg xmlns="http://www.w3.org/2000/svg" xml:space="preserve" width="512" height="512" viewBox="0 0 512 512"><path fill="#FFF" d="M0 0h512v512H0z"/><path fill="#9A1E20" d="M104.03 129.13h70.66v29.63h-35.33v194.19h35.33v29.92h-70.66zM251.62 288.1c-13.54 0-21.74-8.4-21.74-8.4v-29.56h-33.96V370.5h34.9v-58.7s16.22 6.11 29.57 6.11c12.94 0 65.67-4.85 68.9-67.77h-37.61c-3.28 34.55-27.45 37.97-40.06 37.97zM367 352.48h-35.33v30.39h70.66V264.65H367z"/><linearGradient id="a" x1="95.75" x2="412.55" y1="198.53" y2="283.41" gradientTransform="matrix(1 0 0 -1 0 513)" gradientUnits="userSpaceOnUse"><stop offset="0" stop-color="#9fc9eb"/><stop offset=".21" stop-color="#9ec7e8"/><stop offset=".29" stop-color="#99c0df"/><stop offset=".34" stop-color="#90b4d3"/><stop offset=".39" stop-color="#81a3c2"/><stop offset=".43" stop-color="#7493b0"/><stop offset=".46" stop-color="#627f9b"/><stop offset=".47" stop-color="#597592"/><stop offset=".72" stop-color="#010101"/><stop offset=".73" stop-color="#050608"/><stop offset=".85" stop-color="#53616d"/><stop offset=".93" stop-color="#86a6be"/><stop offset=".96" stop-color="#9cc7ea"/></linearGradient><path fill="url(#a)" d="M88.83 235.62s-8.33 8.09-8.33 18.27c0 45.28 113.11 85.93 213.5 85.93 0 0 133.5 1.73 133.5-50.66 0-43.08-100.43-86.44-223.18-86.44-8.44 0-40.06 1.93-40.06 1.93 146.99 0 246.5 48.17 246.5 77.3 0 9.92-7.7 45.2-115.56 45.2-113.15 0-205.35-39.52-205.35-77.07 0-3.27-1.02-14.46-1.02-14.46z"/><path fill="#9A1E20" d="M262.69 167.95c-24.23 0-31.86 10.43-31.86 10.43v-7.94h-34.9v80.1h33.95V207.5s9.16-9.36 22.89-9.36 39.29 1.91 39.29 44.17c0 2.92-.13 5.65-.38 8.22h37.6c.1-2 .16-4.04.16-6.16 0-68.78-42.54-76.42-66.75-76.42zm68.98-38.82v29.65H367v106.38h35.33V129.13z"/></svg>