<svg xmlns="http://www.w3.org/2000/svg" xml:space="preserve" width="512" height="512" viewBox="0 0 512 512"><path fill="#FFF" d="M512 464c0 26.4-21.6 48-48 48H48c-26.4 0-48-21.6-48-48V48C0 21.6 21.6 0 48 0h416c26.4 0 48 21.6 48 48v416z"/><path fill="#991B1E" d="M62.45 86.18h87.79v36.81h-43.89v241.29h43.89v39.54H62.45z"/><path fill="none" d="M259.92 302.05c15.57 0 45.42-4.22 49.47-46.9h-76.32v36.52s10.13 10.38 26.85 10.38z"/><path fill="#991B1E" d="M259.92 302.05c-16.72 0-26.85-10.38-26.85-10.38v-36.51h-41.93v148.66h43.1V331.3s20.03 7.55 36.52 7.55c15.98 0 81.09-5.98 85.07-83.7H309.4c-4.05 42.68-33.9 46.9-49.47 46.9zm145.73 62.23h-43.89v39.54h87.79V255.16h-43.9z"/><linearGradient id="a" x1="37.68" x2="476.25" y1="317.88" y2="200.37" gradientUnits="userSpaceOnUse"><stop offset="0" stop-color="#9fc9eb"/><stop offset=".21" stop-color="#9ec7e8"/><stop offset=".29" stop-color="#98c0df"/><stop offset=".34" stop-color="#8fb4d3"/><stop offset=".39" stop-color="#82a4c2"/><stop offset=".43" stop-color="#7392af"/><stop offset=".46" stop-color="#617e9b"/><stop offset=".47" stop-color="#587491"/><stop offset=".72"/><stop offset=".73" stop-color="#000205"/><stop offset=".85" stop-color="#52606c"/><stop offset=".93" stop-color="#86a6be"/><stop offset=".96" stop-color="#9cc7eb"/></linearGradient><path fill="url(#a)" d="M27.5 208.27s-11.53 10.64-11.53 24.03c0 59.54 156.47 112.99 295.34 112.99 0 0 184.66 2.28 184.66-66.61 0-56.65-138.92-113.67-308.72-113.67-11.68 0-29.06 1.2-29.06 1.2 203.32 0 314.62 64.67 314.62 103 0 13.03-10.64 59.4-159.85 59.4-156.52 0-284.05-51.95-284.05-101.33 0-4.3-1.42-19.01-1.42-19.01z"/><path fill="#991B1E" d="M273.58 153.66c-29.91 0-39.33 12.88-39.33 12.88v-9.8h-43.1v98.9h41.92V202.5s11.3-11.56 28.27-11.56c16.96 0 48.52 2.36 48.52 54.55 0 3.6-.17 6.98-.47 10.15h46.44c.13-2.46.2-5 .2-7.6 0-84.94-52.53-94.38-82.45-94.38zm88.18-66.85v36.8h43.89v132.17h43.9V86.81z"/></svg>