<svg xmlns="http://www.w3.org/2000/svg" xml:space="preserve" width="440" height="165" viewBox="0 0 440 165"><path fill="#991B1E" d="M396.57 130.8h-16.24v14.6h32.48V92.17h-16.24zM29.35 28.07h32.48v13.6H45.59v89.13h16.24v14.6H29.35zm78.11 24.75c-11.06 0-14.55 4.76-14.55 4.76v-3.63H76.96v91.45h15.95v-26.78s7.4 2.79 13.5 2.79 31.55-2.36 31.55-33.73-19.43-34.86-30.5-34.86zm-5.05 55c-6.19 0-9.94-3.84-9.94-3.84V70.86s4.19-4.27 10.46-4.27 17.95.87 17.95 20.15-12.28 21.07-18.47 21.07zm50.54-77.66v81.57c0 2.04 2.3 9.22 10.64 9.22 8.54 0 12.1-5.38 12.1-6.52s-6.7-4.38-6.7-10.06V26.15l-16.04 4.01zm84.01 75.12V82c0-24.42-11.5-29.18-27.54-29.18S189.2 57 189.2 57l3.49 12.55s5.05-3.04 15.16-3.04c15.34 0 13.15 10.37 13.15 10.37s-1.73-.88-5.83-.88c-20.83 0-32.6 8.98-32.6 24.4s8.9 20.4 22.84 20.4 17.6-6.54 17.6-6.54 1.05 6.54 9.94 6.54 9.06-4.88 9.06-4.88l-5.05-10.64zm-28.15 2.7c-6.97 0-10.2-3.22-10.2-8.19 0-14.38 22.86-10.2 22.86-10.2s3.03 18.4-12.66 18.4zm44-53.94v65.97h16.13V72.26s5.84-5.67 12.8-5.67c7.76 0 12.47 4.53 12.47 11.5v41.92h16.3V78.36s1.65-25.54-25.71-25.54c-13.43 0-17.85 7.13-17.85 7.13s-.87-5.9-2.12-5.9h-12.01zm106.93 16.12s-5.23-4.18-12.9-4.18-8.53 4.01-8.53 5.4c0 9.42 30.06 8.55 30.06 29.8 0 13-10.37 19.62-25.88 19.62-13.77 0-20.48-5.15-20.48-5.15l5.93-12.8s4.96 5.05 15.07 5.05c8.46 0 8.54-5.32 8.54-5.32 0-12.98-29.54-9.24-29.54-31.37 0-17.17 16.03-18.39 24.23-18.39s18.04 4.53 18.04 4.53l-4.54 12.81z"/><linearGradient id="a" x1="23.62" x2="420.11" y1="139.2" y2="32.96" gradientUnits="userSpaceOnUse"><stop offset="0" stop-color="#9fc9eb"/><stop offset=".21" stop-color="#9ec7e8"/><stop offset=".29" stop-color="#98c0df"/><stop offset=".34" stop-color="#8fb4d3"/><stop offset=".39" stop-color="#82a4c2"/><stop offset=".43" stop-color="#7392af"/><stop offset=".46" stop-color="#617e9b"/><stop offset=".47" stop-color="#587491"/><stop offset=".72"/><stop offset=".73" stop-color="#000205"/><stop offset=".85" stop-color="#52606c"/><stop offset=".93" stop-color="#86a6be"/><stop offset=".96" stop-color="#9cc7eb"/></linearGradient><path fill="url(#a)" d="M9.46 43.54S4 49.72 4 61.83c0 53.83 141.45 102.15 267 102.15 0 0 166.94 2.06 166.94-60.22C437.94 52.55 312.36 1 158.84 1c-10.55 0-26.27 1.07-26.27 1.07 183.81 0 293.01 56.66 293.01 92.79 0 12.29-10.02 56-150.69 56-147.55 0-267.77-48.97-267.77-95.53 0-4.05 2.34-11.79 2.34-11.79z"/><path fill="#991B1E" d="M380.33 28.07v13.6h16.24v50.5h16.24v-64.1z"/></svg>