<?xml version="1.0" encoding="utf-8"?>
<!-- Generator: Adobe Illustrator 14.0.0, SVG Export Plug-In . SVG Version: 6.00 Build 43363)  -->
<!DOCTYPE svg PUBLIC "-//W3C//DTD SVG 1.1//EN" "http://www.w3.org/Graphics/SVG/1.1/DTD/svg11.dtd" [
	<!ENTITY ns_flows "http://ns.adobe.com/Flows/1.0/">
	<!ENTITY ns_extend "http://ns.adobe.com/Extensibility/1.0/">
	<!ENTITY ns_ai "http://ns.adobe.com/AdobeIllustrator/10.0/">
	<!ENTITY ns_graphs "http://ns.adobe.com/Graphs/1.0/">
	<!ENTITY ns_vars "http://ns.adobe.com/Variables/1.0/">
	<!ENTITY ns_imrep "http://ns.adobe.com/ImageReplacement/1.0/">
	<!ENTITY ns_sfw "http://ns.adobe.com/SaveForWeb/1.0/">
	<!ENTITY ns_custom "http://ns.adobe.com/GenericCustomNamespace/1.0/">
	<!ENTITY ns_adobe_xpath "http://ns.adobe.com/XPath/1.0/">
]>
<svg version="1.1"
	 xmlns:x="&ns_extend;" xmlns:i="&ns_ai;" xmlns:graph="&ns_graphs;" i:viewOrigin="0 165" i:rulerOrigin="0 0" i:pageBounds="0 165 440 0"
	 xmlns="http://www.w3.org/2000/svg" xmlns:xlink="http://www.w3.org/1999/xlink" xmlns:a="http://ns.adobe.com/AdobeSVGViewerExtensions/3.0/"
	 x="0px" y="0px" width="440px" height="165px" viewBox="0 0 440 165" enable-background="new 0 0 440 165" xml:space="preserve">
<metadata>
	<variableSets  xmlns="&ns_vars;">
		<variableSet  locked="none" varSetName="binding1">
			<variables></variables>
			<v:sampleDataSets  xmlns:v="&ns_vars;" xmlns="&ns_custom;"></v:sampleDataSets>
		</variableSet>
	</variableSets>
</metadata>
<g id="Layer_1" i:layer="yes" i:dimmedPercent="50" i:rgbTrio="#4F008000FFFF">
	<polygon i:knockout="Off" fill="#991B1E" points="396.572,130.8 380.333,130.8 380.333,145.403 412.813,145.403 412.813,92.171 
		396.572,92.171 	"/>
	<polygon i:knockout="Off" fill="#991B1E" points="29.349,28.073 61.829,28.073 61.829,41.669 45.589,41.669 45.589,130.8 
		61.829,130.8 61.829,145.403 29.349,145.403 	"/>
	<path i:knockout="Off" fill="#991B1E" d="M107.462,52.821c-11.067,0-14.553,4.755-14.553,4.755v-3.622H76.96v91.45h15.948v-26.786
		c0,0,7.408,2.789,13.508,2.789s31.547-2.354,31.547-33.727S118.529,52.821,107.462,52.821z M102.408,107.811
		c-6.188,0-9.935-3.834-9.935-3.834V70.86c0,0,4.183-4.27,10.458-4.27s17.952,0.872,17.952,20.148S108.595,107.811,102.408,107.811z
		"/>
	<path i:knockout="Off" fill="#991B1E" d="M152.95,30.164c0,0,0,80.448,0,81.57c0,2.032,2.292,9.219,10.644,9.219
		c8.541,0,12.094-5.385,12.094-6.518s-6.704-4.389-6.704-10.061s0.001-78.22,0.001-78.22L152.95,30.164z"/>
	<path i:knockout="Off" fill="#991B1E" d="M236.957,105.285c0-0.123,0-1.957,0-23.285c0-24.418-11.504-29.179-27.539-29.179
		S189.2,57,189.2,57l3.486,12.555c0,0,5.055-3.05,15.164-3.05c15.338,0,13.15,10.37,13.15,10.37s-1.734-0.871-5.83-0.871
		c-20.828,0-32.593,8.976-32.593,24.401s8.889,20.393,22.833,20.393s17.604-6.536,17.604-6.536s1.046,6.536,9.935,6.536
		s9.063-4.881,9.063-4.881L236.957,105.285z M208.808,107.987c-6.972,0-10.196-3.225-10.196-8.192
		c0-14.38,22.858-10.196,22.858-10.196S224.495,107.987,208.808,107.987z"/>
	<path i:knockout="Off" fill="#991B1E" d="M252.815,54.042v65.971h16.122V72.256c0,0,5.839-5.665,12.811-5.665
		c7.756,0,12.462,4.531,12.462,11.503s0,41.918,0,41.918h16.297V78.357c0,0,1.655-25.536-25.709-25.536
		c-13.423,0-17.845,7.132-17.845,7.132s-0.875-5.911-2.125-5.911C263.869,54.042,252.815,54.042,252.815,54.042z"/>
	<path i:knockout="Off" fill="#991B1E" d="M359.743,70.164c0,0-5.229-4.183-12.897-4.183s-8.541,4.009-8.541,5.403
		c0,9.412,30.066,8.541,30.066,29.805c0,12.984-10.371,19.609-25.883,19.609c-13.77,0-20.479-5.144-20.479-5.144l5.926-12.811
		c0,0,4.967,5.055,15.076,5.055c8.454,0,8.541-5.316,8.541-5.316c0-12.984-29.543-9.237-29.543-31.373
		c0-17.168,16.034-18.389,24.227-18.389s18.04,4.532,18.04,4.532L359.743,70.164z"/>
	<linearGradient id="SVGID_1_" gradientUnits="userSpaceOnUse" x1="23.6206" y1="139.2012" x2="420.1138" y2="32.9611">
		<stop  offset="0" style="stop-color:#9FC9EB"/>
		<stop  offset="0.2126" style="stop-color:#9EC7E8"/>
		<stop  offset="0.2891" style="stop-color:#98C0DF"/>
		<stop  offset="0.3437" style="stop-color:#8FB4D3"/>
		<stop  offset="0.3878" style="stop-color:#82A4C2"/>
		<stop  offset="0.4256" style="stop-color:#7392AF"/>
		<stop  offset="0.4585" style="stop-color:#617E9B"/>
		<stop  offset="0.4727" style="stop-color:#587491"/>
		<stop  offset="0.7212" style="stop-color:#000000"/>
		<stop  offset="0.7347" style="stop-color:#000205"/>
		<stop  offset="0.8493" style="stop-color:#52606C"/>
		<stop  offset="0.9278" style="stop-color:#86A6BE"/>
		<stop  offset="0.9636" style="stop-color:#9CC7EB"/>
		<a:midPointStop  offset="0" style="stop-color:#9FC9EB"/>
		<a:midPointStop  offset="0.87" style="stop-color:#9FC9EB"/>
		<a:midPointStop  offset="0.4727" style="stop-color:#587491"/>
		<a:midPointStop  offset="0.5" style="stop-color:#587491"/>
		<a:midPointStop  offset="0.7212" style="stop-color:#000000"/>
		<a:midPointStop  offset="0.4694" style="stop-color:#000000"/>
		<a:midPointStop  offset="0.9636" style="stop-color:#9CC7EB"/>
	</linearGradient>
	<path i:knockout="Off" fill="url(#SVGID_1_)" d="M9.462,43.542c0,0-5.462,6.182-5.462,18.287c0,53.83,141.453,102.151,267,102.151
		c0,0,166.945,2.062,166.945-60.219C437.945,52.546,312.352,1,158.846,1c-10.56,0-26.271,1.075-26.271,1.075
		c183.808,0,293.005,56.658,293.005,92.781c0,12.294-10.021,56.012-150.69,56.012c-147.549,0-267.774-48.98-267.774-95.533
		C7.115,51.284,9.462,43.542,9.462,43.542z"/>
	<polygon i:knockout="Off" fill="#991B1E" points="380.333,28.073 380.333,41.669 396.572,41.669 396.572,92.171 412.813,92.171 
		412.813,28.073 	"/>
</g>
</svg>
